<svg xmlns="http://www.w3.org/2000/svg" version="1.1" xmlns:xlink="http://www.w3.org/1999/xlink" xmlns:svgjs="http://svgjs.dev/svgjs" width="1440" height="560" preserveAspectRatio="none" viewBox="0 0 1440 560">
    <g mask="url(&quot;#SvgjsMask1055&quot;)" fill="none">
        <rect width="1440" height="560" x="0" y="0" fill="url(&quot;#SvgjsLinearGradient1056&quot;)"></rect>
        <path d="M1137.1193907150246 143.62247636716154L1258.2334240230252 117.87889387722433 1232.489841533088-3.235139430776343 1111.3758082250874 22.508443059160868z" fill="rgba(219, 125, 39, 1)" class="triangle-float1"></path>
        <path d="M1096.3576294919353 132.12534083541811L1175.886951815825 63.12451250394098 1089.3974555948373 31.64491030282234z" fill="rgba(219, 125, 39, 1)" class="triangle-float3"></path>
        <path d="M-43.41229280484771 247.19640247082617L4.982607422541939 331.01882849189155 40.41013321621769 198.80150224343652z" fill="rgba(219, 125, 39, 1)" class="triangle-float1"></path>
        <path d="M766.379,418.757C797.227,417.823,825.025,401.507,840.876,375.026C857.197,347.759,860.026,314.584,845.718,286.208C829.821,254.68,801.661,225.883,766.379,227.276C732.54,228.612,713.343,262.305,697.194,292.071C682.072,319.943,668.436,351.957,683.635,379.787C699.297,408.465,733.718,419.746,766.379,418.757" fill="rgba(219, 125, 39, 1)" class="triangle-float3"></path>
        <path d="M673.4019254543872 280.7522625763526L554.3728178940689 165.8071895300495 439.4277448477658 284.8362970903678 558.456852408084 399.78137013667094z" fill="rgba(219, 125, 39, 1)" class="triangle-float2"></path>
        <path d="M115.70123094618495 137.55825059885802L190.82257867601194 220.98895951843946 274.2532875955934 145.86761178861246 199.1319398657664 62.43690286903103z" fill="rgba(219, 125, 39, 1)" class="triangle-float2"></path>
        <path d="M985.052,533.576C1022.62,531.978,1057.501,513.989,1076.555,481.572C1095.869,448.711,1096.934,408.157,1078.318,374.895C1059.262,340.848,1024.043,319.49,985.052,318.079C943.35,316.57,901.224,332.18,879.312,367.693C856.372,404.873,855.508,453.136,878.991,489.976C901.012,524.522,944.121,535.317,985.052,533.576" fill="rgba(219, 125, 39, 1)" class="triangle-float1"></path>
        <path d="M1271.262767560932 174.99561840459378L1126.5686334050342 179.91038870987995 1191.7510148365773 288.39208873714256z" fill="rgba(219, 125, 39, 1)" class="triangle-float3"></path>
        <path d="M1166.1365278527 469.28120060314427L1219.8643401948857 543.2311901373967 1293.814329729138 489.50337779521095 1240.0865173869524 415.55338826095857z" fill="rgba(219, 125, 39, 1)" class="triangle-float2"></path>
        <path d="M1023.949,485.226C1047.356,484.373,1066.171,467.348,1076.852,446.502C1086.577,427.522,1084.875,405.409,1074.352,386.859C1063.672,368.032,1045.592,353.552,1023.949,353.243C1001.82,352.928,982.609,366.546,970.995,385.385C958.694,405.339,952.938,429.908,963.922,450.616C975.521,472.485,999.21,486.127,1023.949,485.226" fill="rgba(219, 125, 39, 1)" class="triangle-float1"></path>
        <path d="M440.918,194.618C486.463,193.484,527.925,170.669,552.003,131.993C577.645,90.805,588.142,38.882,564.113,-3.268C539.899,-45.744,489.804,-63.689,440.918,-62.868C393.585,-62.074,349.146,-39.78,324.684,0.75C299.373,42.688,294.634,95.761,319.822,137.773C344.398,178.763,393.14,195.807,440.918,194.618" fill="rgba(219, 125, 39, 1)" class="triangle-float3"></path>
        <path d="M414.5998305813082 161.79718810257117L531.8820773641108 197.6539693344802 567.7388585960198 80.37172255167756 450.45661181321725 44.51494131976854z" fill="rgba(219, 125, 39, 1)" class="triangle-float2"></path>
        <path d="M735.6171804798149 183.98108402428227L894.0330131015953 200.6312589659698 910.6831880432828 42.21542634418947 752.2673554215024 25.56525140250193z" fill="rgba(219, 125, 39, 1)" class="triangle-float2"></path>
        <path d="M702.489,507.805C735.914,506.012,759.494,478.574,775.625,449.244C791.032,421.23,799.828,387.736,783.714,360.123C767.701,332.681,734.258,324.382,702.489,323.912C669.655,323.427,635.039,330.222,616.994,357.658C597.309,387.589,596.641,426.764,614.367,457.895C632.27,489.337,666.359,509.743,702.489,507.805" fill="rgba(219, 125, 39, 1)" class="triangle-float3"></path>
        <path d="M1393.7581027867489 243.6874569733471L1306.1164900317126 210.04499386418752 1299.4736017454914 358.3286445513217z" fill="rgba(219, 125, 39, 1)" class="triangle-float1"></path>
        <path d="M1139.363,712.593C1192.342,711.502,1247.828,694.418,1272.7,647.628C1296.505,602.845,1274.692,551.058,1248.226,507.794C1223.244,466.955,1187.237,429.749,1139.363,429.659C1091.368,429.569,1055.667,466.963,1029.788,507.383C1000.939,552.443,970.966,606.123,996.167,653.32C1022.247,702.162,1084.006,713.733,1139.363,712.593" fill="rgba(219, 125, 39, 1)" class="triangle-float2"></path>
        <path d="M523.9818023305365 381.1035164994917L429.29473059112576 321.8109189512387 424.1835780143804 419.33751989995244z" fill="rgba(219, 125, 39, 1)" class="triangle-float2"></path>
        <path d="M192.32103880724702 324.8030620257809L87.06710332099567 410.0360184134846 172.3000597086994 515.289953899736 277.55399519495074 430.05699751203224z" fill="rgba(219, 125, 39, 1)" class="triangle-float1"></path>
        <path d="M1137.291567917099 629.6315612123012L1275.847270000508 595.0857447293101 1241.3014535175168 456.53004264590106 1102.745751434108 491.0758591288922z" fill="rgba(219, 125, 39, 1)" class="triangle-float3"></path>
        <path d="M223.051,672.587C263.228,671.301,304.655,659.416,324.848,624.658C345.119,589.766,335.199,547.701,316.33,512.031C295.822,473.262,266.816,435.087,223.051,432.221C175.111,429.081,129.712,456.521,105.902,498.249C82.291,539.627,82.737,592.012,109.308,631.555C133.402,667.412,179.873,673.969,223.051,672.587" fill="rgba(219, 125, 39, 1)" class="triangle-float3"></path>
    </g>
    <defs>
        <mask id="SvgjsMask1055">
            <rect width="1440" height="560" fill="#ffffff"></rect>
        </mask>
        <linearGradient x1="15.28%" y1="-39.29%" x2="84.72%" y2="139.29%" gradientUnits="userSpaceOnUse" id="SvgjsLinearGradient1056">
            <stop stop-color="rgba(31, 40, 41, 1)" offset="0.67"></stop>
            <stop stop-color="rgba(31, 40, 41, 1)" offset="1"></stop>
        </linearGradient>
        <style>
            @keyframes float1 {
                    0%{transform: translate(0, 0)}
                    50%{transform: translate(-10px, 0)}
                    100%{transform: translate(0, 0)}
                }

                .triangle-float1 {
                    animation: float1 5s infinite;
                }

                @keyframes float2 {
                    0%{transform: translate(0, 0)}
                    50%{transform: translate(-5px, -5px)}
                    100%{transform: translate(0, 0)}
                }

                .triangle-float2 {
                    animation: float2 4s infinite;
                }

                @keyframes float3 {
                    0%{transform: translate(0, 0)}
                    50%{transform: translate(0, -10px)}
                    100%{transform: translate(0, 0)}
                }

                .triangle-float3 {
                    animation: float3 6s infinite;
                }
        </style>
    </defs>
</svg>
